<?xml version="1.0" encoding="UTF-8"?>
<svg xmlns="http://www.w3.org/2000/svg" viewBox="0 0 1080 1080">
  <defs>
    <style>
      .cls-1 {
        fill: #c3a366;
      }

      .cls-2 {
        fill: #c1a260;
      }

      .cls-3 {
        fill: #c7a866;
      }

      .cls-4 {
        fill: #a58346;
      }

      .cls-5 {
        fill: #a38342;
      }
    </style>
  </defs>
  <g id="Z_CIMA" data-name="Z CIMA">
    <path class="cls-1" d="M336.72,395.72l-2.56-108.02,361.99-.56-139.33,201.49h-45.04l110.91-162.7-.32-2.46-251.57,1.13s-6.53,20.66-9.51,34.27c-3.2,14.6-8.17,36.75-8.17,36.75l-16.4.12Z"/>
  </g>
  <g id="Z_TRAÇO_CIMA" data-name="Z TRAÇO CIMA">
    <polygon class="cls-2" points="759.77 286.08 635.69 490.35 606.07 490.52 759.77 286.08"/>
  </g>
  <g id="TIL">
    <path class="cls-3" d="M368.72,571.78c6.36-8.49,19.37-22.49,34.43-35.86,25.37-22.52,52.29-32.93,78.89-35.68,46.33-4.78,93.95,16.68,142.93,17.94,48.53,1.26,74.37-15.75,110.42-42.55-20.82,26.1-56.02,56.17-91.17,61.61-8.66,1.47-16.88,1.46-25.57.7-30.3-2.63-73.16-13.06-106.56-15.9-33.4-1.42-65.74,5.49-96.63,20.78-14.22,7.04-38.42,21.82-46.67,28.94h-.06Z"/>
  </g>
  <g id="Z_BAIXO" data-name="Z BAIXO">
    <path class="cls-4" d="M760.37,680.02l4.22,111.19-383.6,2.71,162.35-235.5h42.43l-135.01,197.18,1.16,3.58,272.41-2.04s6.95-18.53,11.82-39.42c3.94-16.88,6.47-37.43,6.47-37.43l17.73-.28Z"/>
  </g>
  <g id="Z_TRAÇO_BAIXO" data-name="Z TRAÇO BAIXO">
    <polygon class="cls-5" points="315.41 790.04 462.38 556.94 495.41 556.77 315.41 790.04"/>
  </g>
</svg>