<?xml version="1.0" encoding="UTF-8"?>
<svg xmlns="http://www.w3.org/2000/svg" viewBox="0 0 1080 1080">
  <defs>
    <style>
      .cls-1 {
        fill: #c7a866;
      }
    </style>
  </defs>
  <g id="ZYLLAH">
    <path class="cls-1" d="M209.29,507.12l-6.33,37.58h-127.28l100.26-146.09h-65.52s-11.32-.42-19.35,8.44-9.29,17.31-9.29,17.31l4.64-38s1.47,1.93,5.91,2.53c.46.06,2.84.37,6.58.37,24.61,0,105.74.9,105.74.9l-100.49,146.94,72.9-.84s11.54.42,18.72-7.18c7.18-7.6,13.51-21.96,13.51-21.96Z"/>
    <path class="cls-1" d="M215.91,390.45h56.3s-10.98,3.94-12.39,9.01,41.94,71.22,41.94,71.22c0,0,40.53-60.24,41.1-70.37s-14.64-9.85-14.64-9.85h47.01s-8.44,2.25-13.23,7.04-53.48,81.63-53.48,81.63l-.56,54.05s-.49,4.44,5.42,7.29c2.6,1.25,10.81,1.81,10.81,1.81v1.97l-52.07.2.14-1.96s6.54-.34,9.92-2.24,4.64-5.07,4.64-5.07l-.42-52.99s0-1.06-1.06-2.74-49.4-75.58-49.4-75.58c0,0-1.9-4.22-7.18-6.97s-12.86-4.64-12.86-4.64v-1.78Z"/>
    <path class="cls-1" d="M388.76,390.4h54.89v1.79s-6.76-.74-11.29,2.43c-4.54,3.17-4.96,5.91-4.96,5.91l-.11,130.68s-.08,1.98,1.48,3.69c1.92,2.11,3.91,2.11,3.91,2.11l55.31.21s7.18.42,15.2-9.92c8.02-10.34,10.13-19.74,10.13-19.74h1.48l-7.49,37.05h-115.27s6.29-.18,11.61-5.7c3.76-3.91,3.27-8.44,3.27-8.44l-.21-126.56s.11-4.43-5.91-7.71c-6.02-3.27-12.03-4.33-12.03-4.33v-1.48Z"/>
    <path class="cls-1" d="M530.23,390.4h54.89v1.79s-6.76-.74-11.29,2.43c-4.54,3.17-4.96,5.91-4.96,5.91l-.11,130.68s-.08,1.98,1.48,3.69c1.92,2.11,3.91,2.11,3.91,2.11l55.31.21s7.18.42,15.2-9.92c8.02-10.34,10.13-19.74,10.13-19.74h1.48l-7.49,37.05h-115.27s6.29-.18,11.61-5.7c3.76-3.91,3.27-8.44,3.27-8.44l-.21-126.56s.11-4.43-5.91-7.71c-6.02-3.27-12.03-4.33-12.03-4.33v-1.48Z"/>
    <path class="cls-1" d="M824.87,541.43c-3.38-.84-5.35-2.25-9.01-7.6s-69.95-146.09-69.95-146.09c0,0-60.24,140.83-63.46,145.63-3.22,4.8-7.07,7.23-10.24,8.6-3.17,1.37-7.51,1.11-7.51,1.11v1.53l44.76-.23.28-1.83s-7.32-.28-11.54-2.81c-4.22-2.53-4.22-1.97-4.22-7.6s17.17-44.48,17.17-44.48l59.96.28s20.13,41.1,20.13,44.76-.28,6.76-3.38,8.3-9.57,1.13-9.57,1.13v2.25h53.91v-2.25s-3.94.14-7.32-.7ZM714.34,481.8l26.65-65.75,28.71,65.59-55.36.16Z"/>
    <path class="cls-1" d="M844.29,390.75h52.04v1.69s-6.86-.42-10.03,2.11-5.28,5.7-5.28,8.66-.11,58.06-.11,58.06h86.56s0-60.17,0-60.17c0,0,.84-3.69-4.75-6.65-5.59-2.96-12.88-2.32-12.88-2.32l.11-1.37h54.36v1.58s-10.56-.53-13.3,2.01-3.06,4.43-3.06,5.91v132.9c0,2.01.11,4.22,5.7,7.18s10.66,2.32,10.66,2.32v1.48h-52.88l.11-1.48s8.23.21,10.77-.74,3.38-1.9,4.12-3.59,1.37-2.01,1.37-7.49.11-62.49.11-62.49l-87.61-.11v65.02c0,2.32.53,4.54,5.49,6.76s10.66,2.11,10.66,2.11v2.01h-52.67v-1.9s8.55,1.27,12.24-2.11,4.33-4.96,4.33-6.97-.11-129.73-.11-131.63-1.48-4.54-5.7-6.65-10.77-2.96-10.77-2.96l.53-1.16Z"/>
  </g>
  <g id="DIGITAL">
    <path class="cls-1" d="M306.51,592.01h-27.05v69.03h30.82c16.47,0,27.45-16.33,27.45-24.7v-20.48c0-14.78-16.23-23.86-31.22-23.86ZM333,632.76c0,14.33-13.27,22.38-22.51,22.38h-25.76v-58.06h24.1c11.61,0,24.17,10.28,24.17,20.69v14.99Z"/>
    <rect class="cls-1" x="386.7" y="592.01" width="5.07" height="69.03"/>
    <path class="cls-1" d="M502.74,658.93v-33.78h-28.5v4.22h22.17v14.57c0,5.28-11.17,12.24-17.08,12.24s-7.41.21-13.11.21-23.22-8.23-23.22-25.33,0-3.69,0-9.82c0-9.71,13.31-25.86,27.88-25.86,0,0-.44,0,3.79,0,8.32,0,12.39,2.88,14.86,5.01,3.63,3.12,5.21,4.93,6.88,7.66h4.43s-2.21-4.68-7.1-9.83c-5.83-6.13-11.26-8.12-20.87-8.12-13.62,0-34.52,9.95-34.52,32.51,0,17.1,0,3.8,0,9.5,0,6.76,2.96,13.93,6.76,17.94,5.75,6.07,11.4,10.98,22.8,10.98s8.66,0,8.66,0c0,0,4.82.35,12.03-2.96,6.83-3.13,10.57-8.29,10.57-8.29v9.14s3.58,0,3.58,0Z"/>
    <rect class="cls-1" x="551.04" y="592.01" width="5.07" height="69.03"/>
    <polygon class="cls-1" points="655.13 592.01 630.35 592.01 625.29 592.01 600.35 592.01 600.35 597.08 625.29 597.08 625.29 661.05 630.35 661.05 630.35 597.08 655.13 597.08 655.13 592.01"/>
    <path class="cls-1" d="M721.76,590.96h-3.59l-31.25,70.09h5.28l9.29-20.9h38.21l10.34,20.9h3.8l-32.09-70.09ZM702.89,635.94l17.03-39.71,18.74,39.71h-35.76Z"/>
    <polygon class="cls-1" points="800.44 655.98 800.44 592.01 795.37 592.01 795.37 655.98 795.37 661.05 800.44 661.05 840.92 661.05 840.92 655.98 800.44 655.98"/>
  </g>
</svg>